<?xml version="1.0" encoding="iso-8859-1"?>
<!-- Generator: Adobe Illustrator 16.0.0, SVG Export Plug-In . SVG Version: 6.00 Build 0)  -->
<!DOCTYPE svg PUBLIC "-//W3C//DTD SVG 1.1//EN" "http://www.w3.org/Graphics/SVG/1.1/DTD/svg11.dtd">
<svg version="1.1" id="Capa_1" xmlns="http://www.w3.org/2000/svg" xmlns:xlink="http://www.w3.org/1999/xlink" x="0px" y="0px"
	 width="490.158px" height="490.157px" viewBox="0 0 490.158 490.157" style="enable-background:new 0 0 490.158 490.157;"
	 xml:space="preserve">
<g>
	<path d="M331.572,164.488h-10.203v-15.233c0-3.006-2.436-5.443-5.443-5.443h-29.801c-3.006,0-5.443,2.437-5.443,5.443v15.233
		h-58.77v-2.782c0-9.909-6.326-17.765-15.043-20.504V11.462c0-6.33-5.131-11.462-11.462-11.462c-6.33,0-11.462,5.132-11.462,11.462
		v129.74c-8.718,2.739-15.043,10.595-15.043,20.504v2.782h-10.318c-11.868,0-21.49,9.622-21.49,21.491v282.687
		c0,11.869,9.622,21.491,21.49,21.491h172.991c11.869,0,21.49-9.622,21.49-21.491V185.978
		C353.062,174.109,343.441,164.488,331.572,164.488z M190.391,338.639c13.5-14.896,33-24.252,54.686-24.252
		s41.186,9.356,54.686,24.252H190.391z M310.855,354.758c3.512,6.897,5.984,14.412,7.178,22.35H172.12
		c1.193-7.938,3.667-15.452,7.178-22.35H310.855z M185.977,312.773c-8.308,0-15.043-6.734-15.043-15.043s6.735-15.043,15.043-15.043
		c8.309,0,15.043,6.736,15.043,15.043C201.021,306.038,194.286,312.773,185.977,312.773z M245.077,461.955
		c-23.058,0-43.638-10.581-57.169-27.146h114.337C288.715,451.374,268.135,461.955,245.077,461.955z M312.25,418.689H177.904
		c-3.572-7.851-5.808-16.433-6.42-25.463h147.187C318.058,402.258,315.822,410.839,312.25,418.689z M324.05,265.502
		c0,2.969-2.404,5.373-5.373,5.373H171.475c-2.968,0-5.373-2.404-5.373-5.373v-61.249c0-2.967,2.405-5.373,5.373-5.373h147.202
		c2.969,0,5.373,2.405,5.373,5.373V265.502z"/>
</g>
<g>
</g>
<g>
</g>
<g>
</g>
<g>
</g>
<g>
</g>
<g>
</g>
<g>
</g>
<g>
</g>
<g>
</g>
<g>
</g>
<g>
</g>
<g>
</g>
<g>
</g>
<g>
</g>
<g>
</g>
</svg>
